<svg width="32" height="32" viewBox="0 0 32 32" fill="none" xmlns="http://www.w3.org/2000/svg">
  <defs>
    <linearGradient id="bgGradient" x1="0%" y1="0%" x2="100%" y2="100%">
      <stop offset="0%" style="stop-color:#3B82F6;stop-opacity:1" />
      <stop offset="50%" style="stop-color:#1D4ED8;stop-opacity:1" />
      <stop offset="100%" style="stop-color:#1E40AF;stop-opacity:1" />
    </linearGradient>
    <linearGradient id="flowGradient" x1="0%" y1="0%" x2="100%" y2="100%">
      <stop offset="0%" style="stop-color:#FFFFFF;stop-opacity:1" />
      <stop offset="100%" style="stop-color:#E0E7FF;stop-opacity:1" />
    </linearGradient>
    <filter id="glow">
      <feGaussianBlur stdDeviation="1" result="coloredBlur"/>
      <feMerge> 
        <feMergeNode in="coloredBlur"/>
        <feMergeNode in="SourceGraphic"/>
      </feMerge>
    </filter>
  </defs>
  
  <!-- Fondo con gradiente m치s visible -->
  <circle cx="16" cy="16" r="15" fill="url(#bgGradient)" stroke="#1E40AF" stroke-width="1"/>
  
  <!-- Flujo m치s visible -->
  <path d="M8 24 Q12 18 16 12 Q20 6 24 8" stroke="url(#flowGradient)" stroke-width="2.5" fill="none" stroke-linecap="round" filter="url(#glow)"/>
  <path d="M10 26 Q14 20 18 14 Q22 8 26 10" stroke="url(#flowGradient)" stroke-width="2.5" fill="none" stroke-linecap="round" filter="url(#glow)"/>
  
  <!-- Puntos m치s visibles -->
  <circle cx="8" cy="24" r="2" fill="#FFFFFF" filter="url(#glow)"/>
  <circle cx="10" cy="26" r="2" fill="#FFFFFF" filter="url(#glow)"/>
  <circle cx="16" cy="12" r="1.5" fill="#E0E7FF" filter="url(#glow)"/>
  <circle cx="18" cy="14" r="1.5" fill="#E0E7FF" filter="url(#glow)"/>
  <circle cx="24" cy="8" r="1.5" fill="#FFFFFF" filter="url(#glow)"/>
  <circle cx="26" cy="10" r="1.5" fill="#FFFFFF" filter="url(#glow)"/>
  
  <!-- Flecha m치s prominente -->
  <path d="M16 4 L12 10 L20 10 Z" fill="#FFFFFF" filter="url(#glow)"/>
  <path d="M16 4 L12 10 L20 10 Z" fill="#3B82F6" opacity="0.3"/>
</svg>
