<svg width="48" height="48" viewBox="0 0 48 48" fill="none" xmlns="http://www.w3.org/2000/svg">
  <defs>
    <linearGradient id="bgGradient" x1="0%" y1="0%" x2="100%" y2="100%">
      <stop offset="0%" style="stop-color:#3B82F6;stop-opacity:1" />
      <stop offset="50%" style="stop-color:#1D4ED8;stop-opacity:1" />
      <stop offset="100%" style="stop-color:#1E40AF;stop-opacity:1" />
    </linearGradient>
    <linearGradient id="flowGradient" x1="0%" y1="0%" x2="100%" y2="100%">
      <stop offset="0%" style="stop-color:#FFFFFF;stop-opacity:1" />
      <stop offset="100%" style="stop-color:#E0E7FF;stop-opacity:1" />
    </linearGradient>
    <filter id="glow">
      <feGaussianBlur stdDeviation="2" result="coloredBlur"/>
      <feMerge> 
        <feMergeNode in="coloredBlur"/>
        <feMergeNode in="SourceGraphic"/>
      </feMerge>
    </filter>
  </defs>
  
  <!-- Fondo -->
  <circle cx="24" cy="24" r="22" fill="url(#bgGradient)" stroke="#1E40AF" stroke-width="2"/>
  
  <!-- Flujos principales -->
  <path d="M12 36 Q18 27 24 18 Q30 9 36 12" stroke="url(#flowGradient)" stroke-width="3" fill="none" stroke-linecap="round" filter="url(#glow)"/>
  <path d="M15 39 Q21 30 27 21 Q33 12 39 15" stroke="url(#flowGradient)" stroke-width="3" fill="none" stroke-linecap="round" filter="url(#glow)"/>
  <path d="M18 42 Q24 33 30 24 Q36 15 42 18" stroke="url(#flowGradient)" stroke-width="3" fill="none" stroke-linecap="round" filter="url(#glow)"/>
  
  <!-- Puntos de conexión -->
  <circle cx="12" cy="36" r="3" fill="#FFFFFF" filter="url(#glow)"/>
  <circle cx="15" cy="39" r="3" fill="#FFFFFF" filter="url(#glow)"/>
  <circle cx="18" cy="42" r="3" fill="#FFFFFF" filter="url(#glow)"/>
  
  <circle cx="24" cy="18" r="2" fill="#E0E7FF" filter="url(#glow)"/>
  <circle cx="27" cy="21" r="2" fill="#E0E7FF" filter="url(#glow)"/>
  <circle cx="30" cy="24" r="2" fill="#E0E7FF" filter="url(#glow)"/>
  
  <circle cx="36" cy="12" r="2" fill="#FFFFFF" filter="url(#glow)"/>
  <circle cx="39" cy="15" r="2" fill="#FFFFFF" filter="url(#glow)"/>
  <circle cx="42" cy="18" r="2" fill="#FFFFFF" filter="url(#glow)"/>
  
  <!-- Flecha hacia arriba -->
  <path d="M24 6 L18 15 L30 15 Z" fill="#FFFFFF" filter="url(#glow)"/>
  <path d="M24 6 L18 15 L30 15 Z" fill="#3B82F6" opacity="0.3"/>
  
  <!-- Elementos decorativos -->
  <circle cx="9" cy="9" r="2" fill="#E0E7FF" opacity="0.7" filter="url(#glow)"/>
  <circle cx="39" cy="9" r="2" fill="#E0E7FF" opacity="0.7" filter="url(#glow)"/>
  <circle cx="9" cy="39" r="1.5" fill="#FFFFFF" opacity="0.6" filter="url(#glow)"/>
  <circle cx="39" cy="39" r="1.5" fill="#FFFFFF" opacity="0.6" filter="url(#glow)"/>
</svg>
